{"title":"Dont.Go.in.the.House.1979.1080p.BluRay.x264-USURY","uid":12604822,"size":5862750746,"categoryP":"video","categoryS":"hd___movies","magnet":"?xt=urn:btih:439d7a195f0644822c4ca004d7372ab6d71096e8&amp;dn=Dont.Go.in.the.House.1979.1080p.BluRay.x264-USURY&amp;tr=udp%3A%2F%2Ftracker.leechers-paradise.org%3A6969&amp;tr=udp%3A%2F%2Fzer0day.ch%3A1337&amp;tr=udp%3A%2F%2Fopen.demonii.com%3A1337&amp;tr=udp%3A%2F%2Ftracker.coppersurfer.tk%3A6969&amp;tr=udp%3A%2F%2Fexodus.desync.com%3A6969","seeders":0,"leechers":1,"uploader":null,"files":3,"time":1445372840,"description":"Video\r\nID                                       : 1\r\nFormat                                   : AVC\r\nFormat/Info                              : Advanced Video Codec\r\nFormat profile                           :   \r\nFormat settings, CABAC                   : Yes\r\nFormat settings, ReFrames                : 4 frames\r\nCodec ID                                 : V_MPEG4/ISO/AVC\r\nDuration                                 : 1h 22mn\r\nBit rate                                 : 8 995 Kbps\r\nWidth                                    : 1 920 pixels\r\nHeight                                   : 1 040 pixels\r\nDisplay aspect ratio                     : 1.85:1\r\nFrame rate mode                          : Constant\r\nFrame rate                               : 23.976 fps\r\nColor space                              : YUV\r\nChroma subsampling                       : 4:2:0\r\nBit depth                                : 8 bits\r\nScan type                                : Progressive\r\nBits/(Pixel*Frame)                       : 0.188\r\nStream size                              : 5.09 GiB (93%)\r\nWriting library                          : x264 core 146 r2538 121396c\r\nEncoding settings                        : cabac=1 / ref=4 / deblock=1:-1:-1 / analyse=0x3:0x113 / me=umh / subme=8 / psy=1 / psy_rd=1.00:0.15 / mixed_ref=1 / me_range=16 / chroma_me=1 / trellis=1 / 8x8dct=1 / cqm=0 / deadzone=21,11 / fast_pskip=0 / chroma_qp_offset=-3 / threads=6 / lookahead_threads=1 / sliced_threads=0 / nr=0 / decimate=1 / interlaced=0 / bluray_compat=0 / constrained_intra=0 / bframes=3 / b_pyramid=2 / b_adapt=2 / b_bias=0 / direct=3 / weightb=1 / open_gop=0 / weightp=2 / keyint=250 / keyint_min=23 / scenecut=40 / intra_refresh=0 / rc_lookahead=50 / rc=2pass / mbtree=1 / bitrate=8995 / ratetol=1.0 / qcomp=0.60 / qpmin=0 / qpmax=69 / qpstep=4 / cplxblur=20.0 / qblur=0.5 / ip_ratio=1.40 / aq=1:1.00\r\nDefault                                  : Yes\r\nForced                                   : No\r\nDURATION                                 : 01:22:48.172000000\r\nNUMBER_OF_FRAMES                         : 119117\r\nNUMBER_OF_BYTES                          : 5583822429\r\n_STATISTICS_WRITING_APP                  : mkvmerge v7.5.0 ('Glass Culture') 64bit built on Jan  4 2015 16:48:44\r\n_STATISTICS_WRITING_DATE_UTC             : 2015-03-04 21:16:48\r\n_STATISTICS_TAGS                         : BPS DURATION NUMBER_OF_FRAMES NUMBER_OF_BYTES\r\n\r\nAudio\r\nID                                       : 2\r\nFormat                                   : DTS\r\nFormat/Info                              : Digital Theater Systems\r\nMode                                     : 16\r\nFormat settings, Endianness              : Big\r\nCodec ID                                 : A_DTS\r\nDuration                                 : 1h 22mn\r\nBit rate mode                            : Constant\r\nBit rate                                 : 447 Kbps\r\nChannel(s)                               : 1 channel\r\nChannel positions                        : Front: C\r\nSampling rate                            : 48.0 KHz\r\nBit depth                                : 24 bits\r\nCompression mode                         : Lossy\r\nStream size                              : 265 MiB (5%)\r\nLanguage                                 : English\r\nDefault                                  : Yes\r\nForced                                   : No","torrent":{"xt":"urn:btih:439d7a195f0644822c4ca004d7372ab6d71096e8","amp;dn":"Dont.Go.in.the.House.1979.1080p.BluRay.x264-USURY","amp;tr":["udp%3A%2F%2Ftracker.leechers-paradise.org%3A6969","udp%3A%2F%2Fzer0day.ch%3A1337","udp%3A%2F%2Fopen.demonii.com%3A1337","udp%3A%2F%2Ftracker.coppersurfer.tk%3A6969","udp%3A%2F%2Fexodus.desync.com%3A6969"],"infoHash":"439d7a195f0644822c4ca004d7372ab6d71096e8","infoHashBuffer":{"type":"Buffer","data":[67,157,122,25,95,6,68,130,44,76,160,4,215,55,42,182,215,16,150,232]},"announce":[],"urlList":[]}}